Coordinates
version=1
nRows=20
nColumns=63
inDegrees=yes

Units are S.I. units (second, meters, Newtons, ...)
If the header above contains a line with 'inDegrees', this indicates whether rotational values are in degrees (yes) or radians (no).

endheader
time	pelvis_tilt	pelvis_list	pelvis_rotation	pelvis_tx	pelvis_ty	pelvis_tz	hip_flexion_r	hip_adduction_r	hip_rotation_r	knee_angle_r	knee_angle_r_beta	ankle_angle_r	subtalar_angle_r	mtp_angle_r	hip_flexion_l	hip_adduction_l	hip_rotation_l	knee_angle_l	knee_angle_l_beta	ankle_angle_l	subtalar_angle_l	mtp_angle_l	L5_S1_Flex_Ext	L5_S1_Lat_Bending	L5_S1_axial_rotation	L4_L5_Flex_Ext	L4_L5_Lat_Bending	L4_L5_axial_rotation	L3_L4_Flex_Ext	L3_L4_Lat_Bending	L3_L4_axial_rotation	L2_L3_Flex_Ext	L2_L3_Lat_Bending	L2_L3_axial_rotation	L1_L2_Flex_Ext	L1_L2_Lat_Bending	L1_L2_axial_rotation	L1_T12_Flex_Ext	L1_T12_Lat_Bending	L1_T12_axial_rotation	Abs_r3	Abs_r2	Abs_r1	Abs_t1	Abs_t2	neck_flexion	neck_bending	neck_rotation	arm_flex_r	arm_add_r	arm_rot_r	elbow_flex_r	pro_sup_r	wrist_flex_r	wrist_dev_r	arm_flex_l	arm_add_l	arm_rot_l	elbow_flex_l	pro_sup_l	wrist_flex_l	wrist_dev_l
0.000000	-0.154275	-3.281475	85.625683	0.280752	0.929965	0.523002	14.119277	2.270220	-7.421419	14.347721	0.250415	21.473601	-15.312249	0.000000	10.036570	-3.256754	-3.606423	8.480114	0.148006	20.357956	-5.540725	0.000000	0.451832	0.493740	0.525672	0.839097	0.656674	0.558526	0.742315	1.200479	0.558526	0.516399	1.200479	0.459963	0.419571	1.006834	0.427108	0.258177	0.764803	0.394254	3.227391	5.585282	2.923629	0.000000	0.000000	28.307151	-0.326347	-7.564648	15.908059	-18.788833	66.496186	56.038683	67.068756	16.962186	9.307690	15.998521	-8.882468	58.378940	58.866184	61.544449	2.114378	15.115835
0.016667	0.036317	-3.163933	85.449059	0.281405	0.930266	0.521508	13.516038	2.576298	-6.702608	13.707916	0.239248	22.575531	-13.972970	0.000000	9.734117	-3.513656	-4.216095	8.494803	0.148262	20.726235	-4.721521	0.000000	0.434163	0.521393	0.388753	0.806284	0.693453	0.413050	0.713286	1.267715	0.413050	0.496205	1.267715	0.340158	0.403164	1.063225	0.315861	0.248081	0.807638	0.291564	3.101181	5.898103	2.162125	0.000000	0.000000	28.301503	0.826630	-5.606345	16.194096	-18.285314	67.650044	55.549054	63.205832	16.021958	9.916947	14.873135	-8.898418	56.476721	58.671273	62.092495	2.372917	14.596537
0.033333	0.184138	-3.030636	85.327574	0.281984	0.930491	0.520109	12.982265	2.811180	-6.049129	13.196660	0.230325	23.567930	-12.893840	0.000000	9.422493	-3.712229	-4.710369	8.474765	0.147913	21.021090	-4.074524	0.000000	0.419486	0.540271	0.291896	0.779027	0.718560	0.310139	0.689173	1.313614	0.310139	0.479430	1.313614	0.255409	0.389534	1.101720	0.237165	0.239694	0.836879	0.218922	2.996345	6.111648	1.623437	0.000000	0.000000	28.297285	1.671410	-4.206815	16.428276	-17.947552	68.754581	55.216916	59.696653	15.091096	10.245791	13.935446	-8.866143	54.927404	58.442565	62.722676	2.723173	14.173563
0.050000	0.293312	-2.883762	85.260059	0.282490	0.930647	0.518798	12.512363	2.981148	-5.463108	12.803153	0.223457	24.456428	-12.051331	0.000000	9.105624	-3.857705	-5.095101	8.425771	0.147057	21.250702	-3.583148	0.000000	0.407534	0.551282	0.230820	0.756831	0.733205	0.245246	0.669538	1.340387	0.245246	0.465771	1.340387	0.201967	0.378436	1.124175	0.187541	0.232865	0.853936	0.173115	2.910974	6.236214	1.283749	0.000000	0.000000	28.294244	2.234528	-3.309701	16.608269	-17.757435	69.790250	55.028405	56.534825	14.182448	10.336152	13.170640	-8.792936	53.699767	58.192060	63.416375	3.151885	13.845606
0.066667	0.367962	-2.725486	85.245347	0.282924	0.930740	0.517571	12.100736	3.092486	-4.946675	12.516596	0.218456	25.246659	-11.421915	0.000000	8.787438	-3.955313	-5.376148	8.353593	0.145798	21.423251	-3.230804	0.000000	0.398040	0.555338	0.201241	0.739200	0.738600	0.213819	0.653940	1.350249	0.213819	0.454920	1.350249	0.176086	0.369620	1.132445	0.163509	0.227440	0.860219	0.150931	2.843161	6.282095	1.119244	0.000000	0.000000	28.292126	2.542520	-2.858645	16.731744	-17.696847	70.737504	54.969660	53.713954	13.308866	10.229954	12.563907	-8.686089	52.762590	57.931761	64.154972	3.645795	13.611356
0.083333	0.412214	-2.557987	85.282271	0.283287	0.930778	0.516425	11.741790	3.151477	-4.501954	12.326189	0.215133	25.944254	-10.982063	0.000000	8.471862	-4.010282	-5.559366	8.264000	0.144234	21.546920	-3.000905	0.000000	0.390737	0.553348	0.198879	0.725638	0.735953	0.211309	0.641942	1.345411	0.211309	0.446573	1.345411	0.174019	0.362839	1.128388	0.161589	0.223267	0.857137	0.149159	2.790996	6.259587	1.106105	0.000000	0.000000	28.290676	2.621923	-2.797290	16.796373	-17.747675	71.576795	55.026818	51.227647	12.483199	9.969125	12.100435	-8.552894	52.084651	57.673671	64.919849	4.191643	13.469505
0.100000	0.430190	-2.383441	85.369664	0.283579	0.930767	0.515354	11.429927	3.164404	-4.131074	12.221132	0.213299	26.554844	-10.708247	0.000000	8.162823	-4.027843	-5.650611	8.162765	0.142467	21.629890	-2.876862	0.000000	0.385358	0.546223	0.219450	0.715648	0.726477	0.233166	0.633104	1.328087	0.233166	0.440425	1.328087	0.192019	0.357843	1.113858	0.178303	0.220193	0.846100	0.164588	2.752571	6.178986	1.220517	0.000000	0.000000	28.289641	2.499271	-3.069278	16.799824	-17.891804	72.288577	55.186017	49.069510	11.718297	9.595592	11.765411	-8.400643	51.634728	57.429792	65.692389	4.776168	13.418745
0.116667	0.426017	-2.204026	85.506356	0.283801	0.930716	0.514354	11.159554	3.137551	-3.836162	12.190624	0.212767	27.084063	-10.576939	0.000000	7.864250	-4.013226	-5.655741	8.055657	0.140598	21.680341	-2.842088	0.000000	0.381635	0.534873	0.258673	0.708733	0.711381	0.274840	0.626987	1.300489	0.274840	0.436170	1.300489	0.226339	0.354386	1.090712	0.210172	0.218066	0.828518	0.194005	2.725977	6.050587	1.438662	0.000000	0.000000	28.288766	2.201102	-3.618253	16.739769	-18.111121	72.853301	55.433394	47.233148	11.027012	9.151281	11.544025	-8.236629	51.381599	57.212125	66.453974	5.386113	13.457767
0.133333	0.403817	-2.021917	85.691182	0.283955	0.930631	0.513420	10.925074	3.077200	-3.619345	12.223867	0.213347	27.537542	-10.564610	0.000000	7.580069	-3.971660	-5.580611	7.948447	0.138727	21.706456	-2.879995	0.000000	0.379301	0.520207	0.312265	0.704399	0.691875	0.331782	0.623153	1.264831	0.331782	0.433503	1.264831	0.273232	0.352219	1.060806	0.253715	0.216732	0.805801	0.234199	2.709306	5.884685	1.736724	0.000000	0.000000	28.287799	1.753951	-4.387857	16.613877	-18.387511	73.251421	55.755088	45.712168	10.422193	8.678118	11.421463	-8.068143	51.294044	57.032673	67.185985	6.008216	13.585263
0.150000	0.367715	-1.839293	85.922973	0.284041	0.930518	0.512548	10.720893	2.989634	-3.482749	12.310058	0.214851	27.920912	-10.647733	0.000000	7.314209	-3.908376	-5.431078	7.846907	0.136954	21.716416	-2.973994	0.000000	0.378089	0.503136	0.375944	0.702148	0.669171	0.399440	0.621162	1.223325	0.399440	0.432117	1.223325	0.328951	0.351093	1.025995	0.305454	0.216040	0.779358	0.281958	2.700649	5.691576	2.090887	0.000000	0.000000	28.286484	1.184353	-5.321732	16.419818	-18.702861	73.463389	56.137235	44.500176	9.916690	8.218032	11.382914	-7.902477	51.340840	56.903438	67.869804	6.629218	13.799924
0.166667	0.321835	-1.658330	86.200562	0.284060	0.930387	0.511733	10.541414	2.881138	-3.428502	12.438400	0.217091	28.239806	-10.802778	0.000000	7.070595	-3.828603	-5.212998	7.756806	0.135382	21.718402	-3.107499	0.000000	0.377731	0.484570	0.445428	0.701485	0.644478	0.473267	0.620575	1.178184	0.473267	0.431709	1.178184	0.389749	0.350761	0.988135	0.361910	0.215836	0.750599	0.334071	2.698096	5.481555	2.477334	0.000000	0.000000	28.284568	0.518845	-6.363521	16.155263	-19.039057	73.469658	56.565973	43.590779	9.523354	7.812948	11.413566	-7.746925	51.490766	56.836423	68.486813	7.235861	14.100442
0.183333	0.269852	-1.517812	86.504228	0.284071	0.930183	0.510985	10.421594	2.757496	-3.496535	12.596582	0.219852	28.494766	-10.987404	0.000000	6.901295	-3.744966	-4.979893	7.702312	0.134431	21.751049	-3.203410	0.000000	0.379201	0.465868	0.510133	0.704215	0.619605	0.542017	0.622990	1.132713	0.542017	0.433389	1.132713	0.446367	0.352126	0.949999	0.414483	0.216676	0.721630	0.382600	2.708597	5.269997	2.837209	0.000000	0.000000	28.280798	-0.240479	-7.456730	15.798115	-19.314144	73.127967	56.958072	43.311307	9.370188	7.659488	11.408034	-7.593891	51.468637	56.845759	69.313212	7.881227	14.486146
0.200000	0.227302	-1.388854	86.863728	0.283971	0.929958	0.510316	10.322427	2.639595	-3.628033	12.791731	0.223258	28.692784	-11.216315	0.000000	6.779389	-3.659474	-4.655161	7.686805	0.134160	21.780208	-3.368390	0.000000	0.381587	0.449862	0.565870	0.708645	0.598317	0.601237	0.626909	1.093795	0.601237	0.436115	1.093795	0.495136	0.354341	0.917359	0.459770	0.218039	0.696837	0.424403	2.725635	5.088933	3.147200	0.000000	0.000000	28.276740	-0.984780	-8.426754	15.382715	-19.564937	72.549668	57.368661	43.180476	9.390559	7.740363	11.461993	-7.499201	51.515403	57.002725	69.776857	8.428447	15.021874
0.216667	0.195277	-1.259538	87.276311	0.283782	0.929768	0.509676	10.210813	2.527062	-3.851466	12.987065	0.226667	28.849559	-11.418667	0.000000	6.681820	-3.579221	-4.265431	7.701568	0.134418	21.812952	-3.507150	0.000000	0.383860	0.437076	0.604790	0.712867	0.581311	0.642589	0.630644	1.062707	0.642589	0.438714	1.062707	0.529191	0.356453	0.891286	0.491391	0.219338	0.677031	0.453592	2.741876	4.944295	3.363658	0.000000	0.000000	28.272851	-1.655038	-9.154081	14.935016	-19.776102	71.836172	57.763544	43.109976	9.476424	7.931943	11.511193	-7.458437	51.524032	57.299174	69.877473	8.908335	15.763216
0.233333	0.176009	-1.124785	87.742984	0.283509	0.929635	0.509040	10.075403	2.425055	-4.164236	13.170017	0.229860	28.970185	-11.583123	0.000000	6.601699	-3.505367	-3.777639	7.745907	0.135192	21.860797	-3.653467	0.000000	0.385785	0.426740	0.630083	0.716441	0.567564	0.669463	0.633806	1.037575	0.669463	0.440914	1.037575	0.551323	0.358240	0.870208	0.511943	0.220438	0.661020	0.472562	2.755623	4.827367	3.504333	0.000000	0.000000	28.268748	-2.306391	-9.767354	14.406575	-19.944195	70.910303	58.152581	43.115870	9.577196	8.271967	11.601304	-7.488901	51.647449	57.714031	69.539104	9.231803	16.627763
0.250000	0.168139	-0.979326	88.268477	0.283147	0.929587	0.508374	9.900478	2.331445	-4.585164	13.320242	0.232482	29.056960	-11.680549	0.000000	6.526629	-3.437357	-3.208274	7.808859	0.136290	21.936171	-3.772031	0.000000	0.386765	0.418690	0.641491	0.718262	0.556858	0.681584	0.635417	1.018004	0.681584	0.442034	1.018004	0.561305	0.359150	0.853793	0.521211	0.220998	0.648551	0.481118	2.762626	4.736309	3.567781	0.000000	0.000000	28.264154	-2.941973	-10.258363	13.777056	-20.070795	69.747949	58.538426	43.182883	9.683645	8.845756	11.735890	-7.585424	51.941716	58.224705	68.680505	9.330139	17.547835
0.266667	0.168224	-0.823536	88.826083	0.282734	0.929631	0.507658	9.680230	2.251480	-5.063099	13.422118	0.234260	29.105098	-11.736361	0.000000	6.446696	-3.380653	-2.635370	7.881718	0.137562	22.066859	-3.765583	0.000000	0.386449	0.412802	0.637512	0.717675	0.549026	0.677357	0.634898	1.003686	0.677357	0.441673	1.003686	0.557823	0.358857	0.841785	0.517979	0.220817	0.639430	0.478134	2.760369	4.669694	3.545652	0.000000	0.000000	28.259837	-3.527651	-10.573120	13.081645	-20.156116	68.460461	58.934795	43.004971	9.792005	9.753292	11.835937	-7.697404	52.187286	58.787054	67.794093	9.443262	18.497098
0.283333	0.167418	-0.656711	89.423201	0.282274	0.929762	0.506896	9.408843	2.170383	-5.649627	13.463961	0.234990	29.140846	-11.675565	0.000000	6.363101	-3.326822	-2.068525	7.966961	0.139050	22.256794	-3.627988	0.000000	0.384388	0.407255	0.626238	0.713847	0.541650	0.665378	0.631511	0.990201	0.665378	0.439317	0.990201	0.547958	0.356943	0.830475	0.508818	0.219639	0.630839	0.469679	2.745646	4.606955	3.482948	0.000000	0.000000	28.258129	-4.115347	-10.814906	12.251306	-20.203471	66.888481	59.355742	42.917424	10.099383	10.907140	11.944120	-7.791711	52.452397	59.363680	67.271767	9.621407	19.313356
0.300000	0.160214	-0.472116	90.064896	0.281770	0.929968	0.506107	9.077433	2.081702	-6.352209	13.438602	0.234548	29.175233	-11.486077	0.000000	6.270003	-3.270592	-1.509620	8.069848	0.140845	22.500772	-3.365289	0.000000	0.378932	0.401400	0.611718	0.703714	0.533862	0.649951	0.622547	0.975964	0.649951	0.433081	0.975964	0.535253	0.351876	0.818535	0.497021	0.216521	0.621769	0.458789	2.706670	4.540718	3.402193	0.000000	0.000000	28.263640	-4.681490	-10.964186	11.228850	-20.181076	64.849183	59.823551	43.255839	10.817334	12.232788	12.119303	-7.853407	52.854894	59.924585	67.114507	9.818181	19.902355
0.316667	0.139763	-0.272974	90.724476	0.281252	0.930225	0.505314	8.701716	1.987185	-7.088669	13.361862	0.233208	29.199721	-11.254470	0.000000	6.167862	-3.203863	-0.933966	8.195589	0.143040	22.762823	-3.081221	0.000000	0.370205	0.393851	0.609059	0.687507	0.523822	0.647125	0.608209	0.957609	0.647125	0.423107	0.957609	0.532927	0.343772	0.803141	0.494861	0.211535	0.610075	0.456794	2.644335	4.455319	3.387405	0.000000	0.000000	28.278877	-5.304236	-11.179759	9.974725	-20.059071	62.225805	60.384173	44.203927	12.004773	13.380746	12.375898	-7.836044	53.362723	60.425756	67.691813	10.079798	20.150017
